<?xml version="1.0" standalone="no"?>
<!DOCTYPE svg PUBLIC "-//W3C//DTD SVG 20010904//EN"
 "http://www.w3.org/TR/2001/REC-SVG-20010904/DTD/svg10.dtd">
<svg version="1.0" xmlns="http://www.w3.org/2000/svg"
 width="90.000000pt" height="90.000000pt" viewBox="0 0 90.000000 90.000000"
 preserveAspectRatio="xMidYMid meet">

<g transform="translate(0.000000,90.000000) scale(0.100000,-0.100000)"
fill="#000000" stroke="none">
<path d="M356 740 c-55 -14 -133 -55 -195 -103 -61 -47 -161 -163 -161 -186 0
-26 96 -147 149 -190 187 -147 421 -145 606 5 55 45 145 160 145 186 0 22
-103 140 -162 186 -88 68 -175 103 -266 108 -42 2 -94 -1 -116 -6z m179 -99
c134 -61 165 -233 61 -337 -105 -105 -274 -75 -337 61 -79 171 104 354 276
276z"/>
<path d="M389 511 c-20 -20 -29 -39 -29 -61 0 -43 47 -90 90 -90 43 0 90 47
90 90 0 43 -47 90 -90 90 -22 0 -41 -9 -61 -29z"/>
</g>
</svg>
